<svg xmlns="http://www.w3.org/2000/svg" width="100.18" height="42.41" viewBox="0 0 100.18 42.41">
  <defs>
    <style>
      .cls-1 {
        fill: #666;
      }

      .cls-2 {
        fill: #e6e6e6;
      }

      .cls-3 {
        fill: #c1c1c1;
      }

      .cls-4 {
        isolation: isolate;
      }

      .cls-5 {
        fill: #055b61;
      }

      .cls-6 {
        fill: #f27400;
      }
    </style>
  </defs>
  <g id="Layer_2" data-name="Layer 2">
    <g id="plane">
      <g>
        <path class="cls-1" d="M6.55,30.15l93.63-7.75-83.55.25Z"/>
        <polygon class="cls-2" points="31.2 42.41 0 0 100.18 22.4 31.2 42.41"/>
        <polygon class="cls-3" points="100.18 22.4 16.63 22.65 11.33 15.33 100.18 22.4"/>
        <polygon class="cls-3" points="6.55 30.15 11.33 15.33 16.63 22.65 6.55 30.15"/>
        <g id="Title_TAG:H6_" data-name="Title TAG:H6 " class="cls-4">
          <g class="cls-4">
            <path class="cls-5" d="M23.21,9.63a.45.45,0,0,0-.16-.39.66.66,0,0,0-.35-.11,2.47,2.47,0,0,0-1,.26,4.74,4.74,0,0,0-1.14.71,9,9,0,0,0-1.12,1.11,9.2,9.2,0,0,0-1,1.43,8.74,8.74,0,0,0-.68,1.7,6.88,6.88,0,0,0-.26,1.88,5.66,5.66,0,0,0,.17,1.45,4.89,4.89,0,0,0,.37,1,3.19,3.19,0,0,0,.39.66,2.39,2.39,0,0,0,.24.28.21.21,0,0,1,.05.2c0,.08-.09.11-.21.11h-.26a3.64,3.64,0,0,1-.55-.09,7.24,7.24,0,0,1-.73-.19,5,5,0,0,1-.83-.36,4.26,4.26,0,0,1-.81-.57,3.52,3.52,0,0,1-.7-.82,4,4,0,0,1-.49-1.12A5.09,5.09,0,0,1,14,15.34a4.93,4.93,0,0,1,.93-2.89,8.19,8.19,0,0,1,2.58-2.3,14.65,14.65,0,0,1,4-1.51,21.33,21.33,0,0,1,5-.55h4.69c.15,0,.22.07.22.2v3c0,.11,0,.17-.14.19s-.16,0-.2-.16L30.88,11a4.86,4.86,0,0,0-.29-.52,5.7,5.7,0,0,0-.47-.58,3.6,3.6,0,0,0-.65-.56,3.4,3.4,0,0,0-.83-.42,3,3,0,0,0-1-.16,1,1,0,0,0-.44.08A.71.71,0,0,0,26.9,9a1,1,0,0,0-.14.31,2.2,2.2,0,0,0-.05.37V20.43a1.38,1.38,0,0,0,.21.8,1.76,1.76,0,0,0,.49.49A2.1,2.1,0,0,0,28,22l.4.09a.3.3,0,0,1,.15.07.19.19,0,0,1,0,.12.27.27,0,0,1-.06.1.25.25,0,0,1-.16,0H21.58a.25.25,0,0,1-.16,0,.18.18,0,0,1-.06-.1.19.19,0,0,1,0-.12.3.3,0,0,1,.15-.07L22,22a2.1,2.1,0,0,0,.56-.25,1.76,1.76,0,0,0,.49-.49,1.38,1.38,0,0,0,.21-.8Z"/>
            <path class="cls-5" d="M38.4,12.6a2.12,2.12,0,0,1,.75.11,1.43,1.43,0,0,1,.5.29,1.12,1.12,0,0,1,.27.44A1.54,1.54,0,0,1,40,14a1,1,0,0,1-.32.8,1.28,1.28,0,0,1-.87.28,1.33,1.33,0,0,1-.65-.14,2.12,2.12,0,0,1-.39-.33l-.3-.32a.46.46,0,0,0-.34-.15.79.79,0,0,0-.39.12,1.07,1.07,0,0,0-.38.46,3.27,3.27,0,0,0-.29.94A7.88,7.88,0,0,0,36,17.15v3.67a1.39,1.39,0,0,0,.14.67,1.1,1.1,0,0,0,.7.54,1.68,1.68,0,0,0,.26.06.22.22,0,0,1,.12.07.1.1,0,0,1,0,.1.21.21,0,0,1-.06.1.17.17,0,0,1-.13,0H32a.17.17,0,0,1-.13,0,.12.12,0,0,1-.06-.1.12.12,0,0,1,0-.1.32.32,0,0,1,.13-.07,1.68,1.68,0,0,0,.26-.06,1.1,1.1,0,0,0,.7-.54,1.39,1.39,0,0,0,.14-.67v-6a.16.16,0,0,0-.13-.17l-.15,0-.3-.07-.32-.08-.17,0c-.09,0-.14-.07-.14-.14s0-.13.15-.16a8.42,8.42,0,0,0,.89-.26,8.78,8.78,0,0,0,1-.37,10.26,10.26,0,0,0,1-.44q.45-.24.81-.48a.31.31,0,0,1,.2-.06c.07,0,.1.06.1.16v1.52A2.69,2.69,0,0,1,37,13,2.59,2.59,0,0,1,38.4,12.6Z"/>
            <path class="cls-5" d="M49.43,21.42a.22.22,0,0,1,.23.06c.06.06.06.14,0,.24a1.68,1.68,0,0,1-.2.28,1.8,1.8,0,0,1-.39.29,2.25,2.25,0,0,1-.58.24,3.23,3.23,0,0,1-.81.09,2,2,0,0,1-1.08-.26,1.41,1.41,0,0,1-.61-.6.12.12,0,0,0-.13-.07.31.31,0,0,0-.13.06l-.19.18a3.18,3.18,0,0,1-.47.31,4.82,4.82,0,0,1-.73.29,3.16,3.16,0,0,1-1,.13,4.14,4.14,0,0,1-1.59-.26,3.13,3.13,0,0,1-1-.68,2.54,2.54,0,0,1-.58-.95,3.43,3.43,0,0,1-.17-1,2.36,2.36,0,0,1,.47-1.46,2.85,2.85,0,0,1,1.22-.94,3.93,3.93,0,0,1,.85-.22l.87-.15c.29-.05.57-.11.85-.18a2.59,2.59,0,0,0,.79-.37,1.35,1.35,0,0,0,.55-.68,2.54,2.54,0,0,0,.15-.88,2.37,2.37,0,0,0-.09-.65,1.68,1.68,0,0,0-.25-.54,1.33,1.33,0,0,0-.38-.37.83.83,0,0,0-.47-.14.87.87,0,0,0-.67.23,2,2,0,0,0-.34.56c-.08.22-.15.45-.22.69a1.66,1.66,0,0,1-.34.61,1.24,1.24,0,0,1-.5.3,2,2,0,0,1-.57.1,1.19,1.19,0,0,1-.51-.1,1,1,0,0,1-.38-.26,1,1,0,0,1-.24-.38,1.17,1.17,0,0,1-.08-.46,1.46,1.46,0,0,1,.16-.66,1.48,1.48,0,0,1,.56-.59,3.55,3.55,0,0,1,1.1-.43,7.72,7.72,0,0,1,1.75-.16,7.83,7.83,0,0,1,2,.23,3.59,3.59,0,0,1,1.35.7,2.63,2.63,0,0,1,.77,1.13,4.55,4.55,0,0,1,.24,1.53c0,.68,0,1.33-.07,1.93s-.07,1.13-.09,1.59a6.78,6.78,0,0,0,0,1.15c0,.3.13.48.3.55a.5.5,0,0,0,.26.05A1.37,1.37,0,0,0,49.43,21.42Zm-3.68-4.73a.09.09,0,0,0,0-.09.1.1,0,0,0-.1,0,1.43,1.43,0,0,1-.15.18l-.19.21a5,5,0,0,1-.41.39l-.42.38-.42.34a3.41,3.41,0,0,0-.39.37,2.21,2.21,0,0,0-.41.69,2.63,2.63,0,0,0-.13.8,2,2,0,0,0,.09.58,1.34,1.34,0,0,0,.26.52,1.23,1.23,0,0,0,.44.37,1.33,1.33,0,0,0,.65.14,1,1,0,0,0,1-.54,1.49,1.49,0,0,0,.19-.45,2.06,2.06,0,0,0,0-.35Z"/>
          </g>
          <g class="cls-4">
            <path class="cls-6" d="M65.21,12.9a.14.14,0,0,1,.06.1.17.17,0,0,1,0,.12.23.23,0,0,1-.13.07,2,2,0,0,0-.49.19,1.29,1.29,0,0,0-.38.28,2.08,2.08,0,0,0-.32.39c-.1.16-.2.33-.31.54s-.13.25-.25.52-.27.61-.45,1-.37.82-.58,1.29-.43,1-.64,1.43L60,22.58a.18.18,0,0,1-.16.09.16.16,0,0,1-.15-.08q-.59-1.35-1.05-2.46c-.13-.31-.27-.62-.4-.92s-.25-.58-.35-.83l-.27-.63c-.08-.16-.12-.26-.15-.3s-.09-.08-.14,0a2.53,2.53,0,0,0-.15.3c-.07.16-.16.36-.28.61l-.37.83-.41.92c-.33.73-.7,1.56-1.1,2.47a.18.18,0,0,1-.16.09.15.15,0,0,1-.15-.08l-1.61-3.75c-.21-.48-.41-1-.62-1.43l-.56-1.29-.43-1c-.12-.27-.2-.45-.25-.53s-.21-.38-.3-.54a2.57,2.57,0,0,0-.32-.39,1.43,1.43,0,0,0-.38-.28,2.26,2.26,0,0,0-.5-.19.18.18,0,0,1-.12-.07.19.19,0,0,1,0-.12.27.27,0,0,1,.06-.1.22.22,0,0,1,.13,0h5.56a.25.25,0,0,1,.13,0,.14.14,0,0,1,.06.1.17.17,0,0,1,0,.12.15.15,0,0,1-.12.08l-.39.11a1.44,1.44,0,0,0-.41.21.77.77,0,0,0-.27.39,1,1,0,0,0,0,.62q0,.17.18.51c.09.24.19.5.31.78s.24.59.37.89.24.59.35.85l.28.64a1.85,1.85,0,0,0,.13.29q.08.14.15,0a1.78,1.78,0,0,1,.11-.25l.26-.59q.15-.36.36-.81c.13-.31.27-.62.41-.94l.42-1c.14-.3.26-.58.38-.83l.28-.63.13-.29a.21.21,0,0,1,.17-.13c.08,0,.14,0,.19.13l.14.32.26.64.33.85c.12.3.25.62.37.94s.25.62.37.92.23.57.32.81l.23.58c.06.14.09.22.1.23s.1.09.15,0l.14-.35c.08-.19.16-.41.27-.67s.21-.54.32-.84.23-.59.33-.87.2-.53.28-.75.13-.39.16-.48a1.05,1.05,0,0,0,0-.62,1,1,0,0,0-.26-.39,1.39,1.39,0,0,0-.4-.21l-.37-.11a.16.16,0,0,1-.13-.08.17.17,0,0,1,0-.12.27.27,0,0,1,.06-.1.22.22,0,0,1,.13,0h3.43A.21.21,0,0,1,65.21,12.9Z"/>
            <path class="cls-6" d="M67.76,16.78c-.11,0-.17.06-.17.18a8.32,8.32,0,0,0,.19,1.86,3.67,3.67,0,0,0,.56,1.26,2.22,2.22,0,0,0,.91.73,3.34,3.34,0,0,0,1.27.23,4.13,4.13,0,0,0,1-.11,5,5,0,0,0,.75-.27,4.54,4.54,0,0,0,.52-.3l.29-.18a.21.21,0,0,1,.24,0q.08.09,0,.27s-.07.13-.15.25a2.94,2.94,0,0,1-.32.43,5.27,5.27,0,0,1-.53.51,4.53,4.53,0,0,1-.76.49,5,5,0,0,1-1,.36,4.91,4.91,0,0,1-1.26.14,5.3,5.3,0,0,1-1.92-.33,4,4,0,0,1-1.47-1,4.38,4.38,0,0,1-.94-1.55,6,6,0,0,1-.33-2A5.53,5.53,0,0,1,65,15.54a4.75,4.75,0,0,1,1.08-1.61,4.4,4.4,0,0,1,1.51-1,4.59,4.59,0,0,1,1.73-.34,4.35,4.35,0,0,1,1.46.22,3.93,3.93,0,0,1,1.09.6,3.41,3.41,0,0,1,.76.81,4.44,4.44,0,0,1,.49.9,3.82,3.82,0,0,1,.26.84,3.6,3.6,0,0,1,.08.62.18.18,0,0,1-.07.15.36.36,0,0,1-.19,0Zm-.11-.7c0,.09,0,.14.12.14H68l.44,0,.55,0,.57,0,.47,0h.24a.7.7,0,0,0,.36-.15.56.56,0,0,0,.18-.48A3.33,3.33,0,0,0,70.45,14a1.91,1.91,0,0,0-.47-.61,1,1,0,0,0-.7-.25,1,1,0,0,0-.57.17,1.43,1.43,0,0,0-.42.46,2.52,2.52,0,0,0-.29.62,4.78,4.78,0,0,0-.19.66c0,.22-.09.41-.12.59S67.65,16,67.65,16.08Z"/>
            <path class="cls-6" d="M78.37,20.68a1.16,1.16,0,0,0,.19.7,1.4,1.4,0,0,0,.42.42,1.66,1.66,0,0,0,.47.22l.31.07a.22.22,0,0,1,.12.07.1.1,0,0,1,0,.1.21.21,0,0,1-.06.1.18.18,0,0,1-.13,0H74.16a.18.18,0,0,1-.13,0,.21.21,0,0,1-.06-.1.19.19,0,0,1,0-.1.22.22,0,0,1,.12-.07l.31-.07a1.66,1.66,0,0,0,.47-.22,1.4,1.4,0,0,0,.42-.42,1.16,1.16,0,0,0,.19-.7V8.8a.16.16,0,0,0-.13-.17l-.15,0-.3-.07-.32-.08-.17,0c-.09,0-.14-.07-.14-.14s0-.13.15-.16a8.55,8.55,0,0,0,.9-.26c.32-.11.64-.23,1-.37S77,7.2,77.26,7s.57-.32.81-.48a.31.31,0,0,1,.2-.06c.07,0,.1.06.1.16Z"/>
            <path class="cls-6" d="M84.5,20.68a1.23,1.23,0,0,0,.18.7,1.55,1.55,0,0,0,.43.42,1.61,1.61,0,0,0,.46.22l.31.07a.32.32,0,0,1,.13.07.12.12,0,0,1,0,.1.12.12,0,0,1-.06.1.17.17,0,0,1-.13,0H80.29a.17.17,0,0,1-.13,0,.15.15,0,0,1-.06-.1.12.12,0,0,1,0-.1.32.32,0,0,1,.13-.07l.31-.07A1.8,1.8,0,0,0,81,21.8a1.52,1.52,0,0,0,.42-.42,1.23,1.23,0,0,0,.18-.7V8.8a.16.16,0,0,0-.12-.17l-.16,0-.3-.07-.31-.08-.18,0c-.09,0-.14-.07-.14-.14s0-.13.16-.16a8.42,8.42,0,0,0,.89-.26c.32-.11.65-.23,1-.37A9,9,0,0,0,83.38,7a8.5,8.5,0,0,0,.82-.48.3.3,0,0,1,.2-.06c.06,0,.1.06.1.16Z"/>
          </g>
        </g>
      </g>
    </g>
  </g>
</svg>
